<?xml version="1.0" standalone="no"?> <!DOCTYPE svg PUBLIC "-//W3C//DTD SVG 1.0//EN" "http://www.w3.org/TR/2001/REC-SVG-20010904/DTD/svg10.dtd" > <svg xmlns="http://www.w3.org/2000/svg" width="100%" height="100%">
<defs >
<font id="TypoSlabserif-Light" horiz-adv-x="425" ><font-face
    font-family="TypoSlabserif-Light"
    units-per-em="1000"
    panose-1="2 0 4 3 5 0 0 2 0 4"
    ascent="742"
    descent="-225"
    alphabetic="0" />
<missing-glyph horiz-adv-x="364" d="M33 0V666H298V0H33ZM66 33H265V633H66V33Z" />
<glyph unicode=" " glyph-name="space" horiz-adv-x="333" />
<glyph unicode="!" glyph-name="exclam" horiz-adv-x="303" d="M192 713H124L134 166H181L192 713ZM199 1V77H122V1H199Z" />
<glyph unicode="&quot;" glyph-name="quotedbl" horiz-adv-x="431" d="M322 711Q322 718 313 721T290 725Q276 725 267 722T258 711L261 615L268 496H312L319 614L322 711ZM172 711Q172 718 163 721T140 725Q126 725 117 722T108 711L111 615L118 496H162L169
614L172 711Z" />
<glyph unicode="#" glyph-name="numbersign" horiz-adv-x="547" d="M528 431V480H406L438 714H388L356 480H221L253 714H203L171 480H45V431H165L145 288H20V239H138L106 0H156L188 239H323L291 0H341L373 239H503V288H380L400 431H528ZM350 431L330 288H195L215
431H350Z" />
<glyph unicode="%" glyph-name="percent" horiz-adv-x="770" d="M700 150V228Q700 304 672 346T586 388H562Q505 388 476 346T447 228V150Q447 74 476 33T562 -9H586Q644 -9 672 31T700 150ZM576 712H572L553 717H535L191 -8L233 -13L576 712ZM322 478V556Q322
632 294 674T208 716H184Q127 716 98 674T69 556V478Q69 402 97 360T183 318H207Q265 318 293 359T322 478ZM656 151Q656 91 639 60T584 29H566Q527 29 509 61T491 153V227Q491 285 509 317T565 350H583Q621 350 638 318T656 225V151ZM278 479Q278 419 261 388T206
356H188Q149 356 131 388T113 481V555Q113 613 131 645T186 678H204Q243 678 260 646T278 553V479Z" />
<glyph unicode="&amp;" glyph-name="ampersand" horiz-adv-x="697" d="M667 1V41H595L489 163Q499 178 507 193T523 223Q539 255 553 287T579 351H644V393H476V354H531Q520 325 509 303T484 254Q478 243 471 230T454 202L289 393Q324 416 349 435T388 470Q421
504 421 586Q421 655 379 687T269 719Q194 719 154 686T113 585Q113 556 118 536T133 497T157 461T192 420L211 398Q116 340 83 301Q45 257 45 193Q45 160 60 124T103 59T167 10T250 -9Q305 -9 351 15T440 96Q444 101 447 105T455 115L554 0L667 1ZM366 585Q366
522 338 491Q315 466 258 428L233 457Q218 474 207 488T188 517T177 547T173 583Q173 631 200 651T270 672Q315 672 340 651T366 585ZM422 153Q418 147 415 143Q379 92 340 67T248 41Q224 41 199 54T154 90T120 139T107 194Q107 244 137 279Q151 295 177 315T242
362L422 153Z" />
<glyph unicode="&apos;" glyph-name="quotesingle" horiz-adv-x="258" d="M161 711Q161 718 152 721T129 725Q115 725 106 722T97 711L100 615L107 496H151L158 614L161 711Z" />
<glyph unicode="(" glyph-name="parenleft" horiz-adv-x="270" d="M253 -149Q229 -121 206 -79T165 17T137 139T126 287Q126 367 136 434T165 557T206 654T253 724L218 742Q191 713 165 671T118 571T85 443T72 287Q72 202 84 131T117 4T164 -95T218 -167L253 -149Z" />
<glyph unicode=")" glyph-name="parenright" horiz-adv-x="270" d="M198 287Q198 372 186 443T153 571T107 670T52 742L17 724Q42 696 65 654T105 557T133 435T144 287Q144 207 134 140T106 18T65 -79T17 -149L52 -167Q80 -138 106 -96T153 3T185 131T198 287Z" />
<glyph unicode="*" glyph-name="asterisk" horiz-adv-x="374" d="M339 492L222 550L339 608L314 653L204 580L212 711H162L170 580L60 653L35 608L152 550L35 492L60 447L170 520L162 389H212L204 520L314 447L339 492Z" />
<glyph unicode="+" glyph-name="plus" horiz-adv-x="619" d="M573 237V293H338V527H282V293H46V237H282V0H338V237H573Z" />
<glyph unicode="," glyph-name="comma" horiz-adv-x="232" d="M157 2V25V77Q139 77 121 77T84 76V2H103L53 -137H100L156 1L157 2Z" />
<glyph unicode="-" glyph-name="hyphen" horiz-adv-x="354" d="M300 327V375H55V327H300Z" />
<glyph unicode="." glyph-name="period" horiz-adv-x="232" d="M120 -12V64H44V-12H120Z" />
<glyph unicode="/" glyph-name="slash" horiz-adv-x="364" d="M349 712L297 717L17 -5L69 -10L349 712Z" />
<glyph unicode="0" glyph-name="zero" horiz-adv-x="500" d="M457 296V411Q457 554 411 635T269 716H231Q136 716 90 635T43 411V296Q43 153 89 72T230 -9H268Q363 -9 410 72T457 296ZM396 296Q396 173 365 105T264 37H236Q166 37 135 105T104 296V411Q104 534
135 602T235 670H263Q333 670 364 602T396 411V296Z" />
<glyph unicode="1" glyph-name="one" horiz-adv-x="500" d="M403 0V46H309V708H253Q181 632 105 572L120 534Q139 549 156 561T189 585T220 612T251 646V46H154V0H403Z" />
<glyph unicode="2" glyph-name="two" horiz-adv-x="500" d="M454 0V165H398V51H100V72Q128 114 157 151T224 225T300 300T370 374T421 443T441 503V551Q441 629 397 672T271 716H239Q155 716 107 665T58 524V502H115V525Q115 591 148 628T238 666H270Q322 666
351 635T381 549V515Q381 490 366 461T323 400T261 333T185 260Q142 218 110 179T47 91V0H454Z" />
<glyph unicode="3" glyph-name="three" horiz-adv-x="500" d="M445 170V210Q445 253 431 282T393 330T342 357T287 369Q319 381 346 403T394 451T427 505T439 557V577Q439 607 425 632T386 676T325 705T248 716Q207 716 173 706T113 676T73 630T58 569V514H117V553Q117
604 154 635T250 666Q307 666 343 636T380 561Q380 535 367 508T330 456T276 412T208 384V336H241Q311 336 347 307T384 214V170Q384 110 353 76T267 41H229Q175 41 144 78T112 178V194H51V177Q51 86 96 39T227 -9H271Q352 -9 398 38T445 170Z" />
<glyph unicode="4" glyph-name="four" horiz-adv-x="500" d="M470 199V245H382V707H307L24 264V199H324V46H246V0H446V46H382V199H470ZM324 245H71L324 647V245Z" />
<glyph unicode="5" glyph-name="five" horiz-adv-x="500" d="M456 204V250Q456 346 411 396T278 446Q233 446 193 431T126 385L136 655H433L434 707H80L70 314H109Q164 395 274 395Q335 395 367 356T399 247V199Q399 121 363 81T254 41Q187 41 151 74T115 170V185H58V170Q58
-9 251 -9Q356 -9 406 43T456 204Z" />
<glyph unicode="6" glyph-name="six" horiz-adv-x="500" d="M455 192V244Q455 335 405 384T261 433Q200 433 154 403Q127 386 105 334V361Q105 509 143 588T273 670Q336 671 364 640T392 546V535H449V551Q449 638 404 677T274 716Q159 716 104 628T49 383V257Q49
115 96 53T231 -9H273Q358 -9 406 45T455 192ZM398 190Q398 120 365 79T271 37H237Q174 37 140 85Q120 112 111 145T101 212Q101 247 111 279T142 337Q184 387 255 387Q324 387 361 348T398 236V190Z" />
<glyph unicode="7" glyph-name="seven" horiz-adv-x="500" d="M458 654V707H43V524H98V656H399Q358 565 325 487T260 333T197 176T130 0H193Q226 91 256 170T317 325T383 481T458 654Z" />
<glyph unicode="8" glyph-name="eight" horiz-adv-x="500" d="M449 173V211Q449 272 415 315T318 369Q384 384 414 425T445 524V554Q445 629 398 672T269 716H235Q154 716 108 673T61 552V522Q61 471 89 428T184 369Q121 359 87 318T52 207V169Q52 85 98 38T227
-9H275Q356 -9 402 39T449 173ZM388 521Q388 461 355 427T265 392H239Q184 392 151 427T118 520V548Q118 605 149 637T234 670H270Q325 670 356 638T388 549V521ZM392 174Q392 108 360 73T270 37H232Q172 37 141 72T109 173V211Q109 274 143 310T238 346H268Q325
346 358 311T392 212V174Z" />
<glyph unicode="9" glyph-name="nine" horiz-adv-x="500" d="M455 324V450Q455 592 408 654T273 716H231Q146 716 98 662T49 515V463Q49 372 99 323T243 274Q303 274 350 304Q377 321 399 373V346Q399 198 361 119T231 37Q168 36 140 67T112 161V172H55V156Q55
69 100 30T230 -9Q345 -9 400 79T455 324ZM364 622Q383 595 393 562T403 494Q403 460 393 428T362 370Q320 320 249 320Q180 320 143 359T106 471V517Q106 587 139 628T233 670H267Q329 670 364 622Z" />
<glyph unicode=":" glyph-name="colon" horiz-adv-x="244" d="M159 401V477H82V401H159ZM159 1V77H82V1H159Z" />
<glyph unicode=";" glyph-name="semicolon" horiz-adv-x="244" d="M159 401V477H82V401H159ZM168 25V77H159V77H82V1H113L64 -137H111L168 25Z" />
<glyph unicode="&lt;" glyph-name="less" horiz-adv-x="619" d="M585 -26V31L95 263L585 495V552L33 291V235L585 -26Z" />
<glyph unicode="=" glyph-name="equal" horiz-adv-x="619" d="M586 330V386H34V330H586ZM586 140V196H34V140H586Z" />
<glyph unicode="&gt;" glyph-name="greater" horiz-adv-x="619" d="M585 235V291L33 552V495L523 263L33 31V-26L585 235Z" />
<glyph unicode="?" glyph-name="question" horiz-adv-x="483" d="M427 510V574Q427 641 384 681T244 722Q146 722 103 681T60 567V538H120V559Q120 675 241 675Q302 675 334 646T366 566V516Q366 489 359 468T339 429T310 397T278 371Q229 344 205 317T180 250V165H240V232Q240
266 262 291T332 346Q376 373 401 410T427 510ZM249 -1V75H172V-1H249Z" />
<glyph unicode="@" glyph-name="at" horiz-adv-x="827" d="M785 338Q785 401 759 458T685 558T573 626T430 652Q349 652 278 621T155 537T72 416T41 272Q41 194 70 124T151 1T276 -83T436 -114Q436 -115 435 -108T432 -93T429 -77T428 -69Q363 -69 303 -44T195
25T120 131T92 266Q92 338 119 400T193 508T302 580T433 607Q497 607 552 586T648 527T712 442T735 341Q735 290 720 245T680 167T628 113T575 93Q556 93 544 106Q537 113 537 129Q537 134 537 139T540 152L631 469H572L553 403Q540 449 511 469T452 489Q399 489
355 464T280 399T230 310T212 213Q212 172 223 141T253 89T298 58T353 47Q374 47 394 54T431 72T461 97T483 124Q492 78 512 62T553 45Q595 45 636 68T711 132T764 225T785 338ZM528 333Q528 304 517 263T485 185T432 120T359 93Q342 93 326 99T298 118T278 151T270
198Q270 241 283 285T321 365T377 423T447 446Q487 446 507 415T528 333Z" />
<glyph unicode="A" glyph-name="A" horiz-adv-x="724" d="M694 0V47H630L405 713H321L92 47H29V0H247V47H155L224 255H499L567 47H475V0H694ZM484 302H239L362 669L484 302Z" />
<glyph unicode="B" glyph-name="B" horiz-adv-x="569" d="M539 171V221Q539 251 531 279T505 329T461 364T398 380Q464 386 494 426T524 530V568Q524 647 481 680T350 713H25V666H116V47H25V0H360Q399 0 432 12T489 47T526 101T539 171ZM461 523Q461 463 429 432T337
400H175V666H353Q404 666 432 640T461 559V523ZM477 179Q477 113 440 80T333 47H175V353H343Q409 353 443 318T477 219V179Z" />
<glyph unicode="C" glyph-name="C" horiz-adv-x="614" d="M571 172V221H510V188Q490 113 439 78T313 42Q217 42 166 109T114 293V422Q114 539 165 605T314 671Q350 671 382 662T441 633T487 584T515 516V483H567V713H532V629Q505 671 449 696T311 722Q249 722
201 702T120 642T69 548T51 424V291Q51 222 68 167T119 72T201 12T309 -9Q409 -9 478 36T571 172Z" />
<glyph unicode="D" glyph-name="D" horiz-adv-x="639" d="M587 294V422Q587 561 515 637T310 713H18V666H108V47H18V0H297Q441 0 514 74T587 294ZM524 294Q524 176 465 112T293 47H166V666H303Q408 666 466 602T524 426V294Z" />
<glyph unicode="E" glyph-name="E" horiz-adv-x="557" d="M527 0V209H474V47H173V341H360V252H405V473H360V388L173 389V666H471V512H523V713H24V666H114V47H24V0H527Z" />
<glyph unicode="F" glyph-name="F" horiz-adv-x="523" d="M501 508V713H19V666H109V47H19V0H275V47H168V330L351 329V245H396V463H351L350 377L168 378V666H449V508H501Z" />
<glyph unicode="G" glyph-name="G" horiz-adv-x="645" d="M615 312V359H374V313H498V201Q486 126 431 84T291 42Q197 42 145 108T93 289V424Q93 538 144 604T289 671Q370 671 425 633T498 522V483H552V713H517V632Q487 674 429 698T291 722Q166 722 98 643T30
422V291Q30 222 47 167T98 72T178 12T285 -9Q357 -9 419 15T517 88V0H556V312H615Z" />
<glyph unicode="H" glyph-name="H" horiz-adv-x="695" d="M665 0V47H576V666H665V713H427V666H517V387H176V666H266V713H28V666H117V47H28V0H266V47H176V336L517 337V47H427V0H665Z" />
<glyph unicode="I" glyph-name="I" horiz-adv-x="277" d="M258 0V47H168V666H258V713H20V666H110V47H20V0H258Z" />
<glyph unicode="J" glyph-name="J" horiz-adv-x="401" d="M391 666V713H171V666H261V166Q261 103 238 73T164 42Q61 42 61 150V176L18 159V132Q18 63 57 27T165 -9Q320 -9 320 157V666H391Z" />
<glyph unicode="K" glyph-name="K" horiz-adv-x="586" d="M574 0V47H519L239 378L349 488Q403 542 443 586T512 666H566V713H362V666H444Q436 656 401 620T305 520T210 421T167 374V666H257V713H19V666H109V47H19V0H257V47H167V366L208 325L441 47H370V0H574Z" />
<glyph unicode="L" glyph-name="L" horiz-adv-x="527" d="M497 0V215H444V47H174V666H281V713H25V666H115V47H25V0H497Z" />
<glyph unicode="M" glyph-name="M" horiz-adv-x="855" d="M825 0V47H734V666H825V713H639L428 132L218 713H29V666H121V47H30V0H262V47H178V666L402 50H453L677 666V47H594V0H825Z" />
<glyph unicode="N" glyph-name="N" horiz-adv-x="706" d="M676 666V713H448V666H539V73Q497 156 456 235T372 393T289 550T205 713H28V666H118V47H28V0H266V47H174V653L517 0H595V666H676Z" />
<glyph unicode="O" glyph-name="O" horiz-adv-x="625" d="M595 294V419Q595 489 578 545T527 641T445 701T334 722H290Q228 722 180 701T99 641T48 546T30 419V294Q30 223 47 167T98 72T180 12T290 -9H334Q396 -9 444 12T526 72T577 167T595 294ZM532 296Q532
175 481 107T330 38H294Q195 38 144 106T93 296V417Q93 538 144 606T294 675H330Q430 675 481 607T532 417V296Z" />
<glyph unicode="P" glyph-name="P" horiz-adv-x="529" d="M510 491V538Q510 713 320 713H19V666H109V47H19V0H272V47H167V313H257Q305 313 350 324T431 357T488 413T510 491ZM448 493Q448 460 430 435T383 394T318 369T246 360H167V666H304Q379 666 413 635T448 534V493Z" />
<glyph unicode="Q" glyph-name="Q" horiz-adv-x="666" d="M616 294V419Q616 489 599 545T548 641T466 701T355 722H311Q249 722 201 701T120 641T69 546T51 419V294Q51 223 68 167T119 72T201 12T311 -9H355Q368 -9 380 -8T405 -5L513 -140H571L478 -2H422Q516
19 566 96T616 294ZM553 296Q553 175 502 107T351 38H315Q216 38 165 106T114 296V417Q114 538 165 606T315 675H351Q451 675 502 607T553 417V296Z" />
<glyph unicode="R" glyph-name="R" horiz-adv-x="627" d="M597 0V47H527L490 239Q486 260 479 279T460 314T431 339T388 352Q418 355 441 370T481 408T507 461T516 522V566Q516 609 505 637T473 682T418 706T339 713H26V666H116V47H26V0H265V47H175V332H309Q341
332 362 325T398 304T420 269T435 218Q446 158 453 120T465 59T471 26T474 12T475 6T478 0H597ZM453 523Q453 493 445 467T420 421T379 390T322 379H175V666H318Q352 666 377 662T420 646T445 614T453 561V523Z" />
<glyph unicode="S" glyph-name="S" horiz-adv-x="481" d="M450 162V218Q450 266 435 296T394 344T337 371T271 387T205 400T148 419T108 453T92 511V555Q92 610 124 642T214 675Q292 675 339 636T386 523V490L439 489V713H404V646Q371 685 319 703T204 722Q123
722 77 678T30 558V506Q30 444 56 413T123 366T209 343T295 324T361 286T388 208V166Q388 105 355 72T262 38Q180 38 131 79T81 193V225L27 226V-1H62V75Q94 29 146 10T274 -9Q356 -9 403 36T450 162Z" />
<glyph unicode="T" glyph-name="T" horiz-adv-x="505" d="M475 493V713H-47V493H5V662H185V47H75V0H354V47H244V662H423V493H475Z" />
<glyph unicode="U" glyph-name="U" horiz-adv-x="671" d="M641 666V713H413V666H510V214Q510 127 470 83T351 38H317Q241 38 201 83T161 213V666H257V713H29V666H102V214Q102 -9 313 -9H357Q460 -9 514 49T569 213V666H641Z" />
<glyph unicode="V" glyph-name="V" horiz-adv-x="705" d="M675 666V713H450V666H549L352 60L157 666H253V713H29V666H93L315 0H389L611 666H675Z" />
<glyph unicode="W" glyph-name="W" horiz-adv-x="874" d="M871 666V713H658V666H754L629 61L478 713H393L242 61L118 666H217V713H0V666H59L201 0H282L436 656L589 0H669L812 666H871Z" />
<glyph unicode="X" glyph-name="X" horiz-adv-x="639" d="M627 0V47H560L349 371L542 666H613V713H395V666H480L317 419L156 666H241V713H16V666H87L281 370L68 47H1V0H229V47H131L312 322L492 47H395V0H627Z" />
<glyph unicode="Y" glyph-name="Y" horiz-adv-x="598" d="M597 666V713H384V666H473L300 365L129 666H224V713H2V666H63L271 307V47H170V0H431V47H330V309L536 666H597Z" />
<glyph unicode="Z" glyph-name="Z" horiz-adv-x="553" d="M511 0V209H459V47H89L506 657V713H47V511H99V666H447L31 57V0H511Z" />
<glyph unicode="[" glyph-name="bracketleft" horiz-adv-x="264" d="M221 -167V-123H149Q146 -123 145 -122V-118V693V697Q146 698 149 698H221V742H108Q97 742 94 739T91 726V-151Q91 -161 94 -164T108 -167H221Z" />
<glyph unicode="\" glyph-name="backslash" horiz-adv-x="364" d="M349 -5L68 722L17 717L298 -10L349 -5Z" />
<glyph unicode="]" glyph-name="bracketright" horiz-adv-x="264" d="M175 -151V726Q175 736 172 739T158 742H45V698H117L121 693V-118L117 -123H45V-167H158Q168 -167 171 -164T175 -151Z" />
<glyph unicode="^" glyph-name="asciicircum" horiz-adv-x="636" d="M525 351L341 713H293L109 351H170L317 643L464 351H525Z" />
<glyph unicode="_" glyph-name="underscore" horiz-adv-x="500" d="M502 -225V-175H-3V-225H502Z" />
<glyph unicode="`" glyph-name="grave" horiz-adv-x="262" d="M201 570L108 708H32L143 570H201Z" />
<glyph unicode="a" glyph-name="a" horiz-adv-x="483" d="M469 0V46H402V407Q402 488 364 530T250 572H212Q137 572 97 537T56 436V418H112V430Q112 526 215 526H243Q295 526 320 496T345 395V324H213Q123 324 82 286T40 171V137Q40 70 73 30T172 -10Q232 -10
275 9T349 77L348 0H469ZM345 199Q340 164 329 135T298 83T252 49T189 36Q143 36 120 66T97 142V162Q97 220 128 249T234 279Q279 279 312 277T345 274V199Z" />
<glyph unicode="b" glyph-name="b" horiz-adv-x="523" d="M483 240V322Q483 437 439 504T310 572Q261 572 214 554T138 495V713H14V667H80V30H31V0H120V71Q153 29 200 10T311 -10Q395 -10 439 57T483 240ZM426 247Q426 150 392 93T293 36Q221 36 178 88T134 236V340Q134
382 145 416T177 474T227 512T293 526Q357 526 391 469T426 315V247Z" />
<glyph unicode="c" glyph-name="c" horiz-adv-x="465" d="M431 175H380Q377 150 370 125T350 81T321 49T281 36H243Q211 36 186 51T144 94T118 160T108 246V318Q108 365 117 403T143 469T185 511T242 526Q305 526 338 496T383 408V389H430V562H399V502Q372 533
335 552T238 572Q148 572 100 506T52 323V239Q52 182 64 136T100 58T158 8T237 -10H295Q350 -10 388 39T431 175Z" />
<glyph unicode="d" glyph-name="d" horiz-adv-x="523" d="M507 0V46H441V713H305V667H383V496Q355 535 309 553T215 572Q131 572 86 504T41 319V241Q41 124 84 57T212 -10Q326 -10 383 66V0H507ZM387 233Q387 188 376 152T344 90T294 50T228 36Q197 36 173 51T132
93T107 159T98 246V316Q98 364 106 402T131 468T172 511T227 526Q263 526 292 513T343 476T375 417T387 341V233Z" />
<glyph unicode="e" glyph-name="e" horiz-adv-x="477" d="M442 267V320Q442 438 397 505T263 572H223Q132 572 87 505T42 317V239Q42 119 88 55T228 -10H274Q337 -10 380 34T434 164V177H383V168Q378 112 349 74T267 36H231Q165 36 132 90T98 242V267H442ZM385
312H98V322Q98 368 106 405T131 470T172 511T226 526H256Q319 526 352 479T385 343V312Z" />
<glyph unicode="f" glyph-name="f" horiz-adv-x="264" d="M281 672V718L219 722Q158 726 127 690T95 584V562H21V516H95V46H21V0H234V46H153V516H245V562H153V583Q153 635 172 655T231 676L269 672H281Z" />
<glyph unicode="g" glyph-name="g" horiz-adv-x="523" d="M509 516V562H382V489Q356 531 310 551T210 572Q170 572 139 555T86 505T53 428T41 326V244Q41 188 52 143T86 67T139 18T211 0Q266 0 311 20T382 86V0Q382 -72 354 -103T263 -134H231Q176 -134 151 -114T121
-51Q107 -51 98 -51Q89 -51 84 -52Q74 -52 64 -67Q68 -122 107 -151T222 -180H266Q357 -180 398 -140T439 -6V516H509ZM382 276Q382 225 374 183T350 111T314 63T269 46H227Q198 46 175 61T134 102T108 166T98 248V322Q98 367 107 404T132 469T172 511T224 526H268Q293
526 314 508T350 459T373 384T382 290V276Z" />
<glyph unicode="h" glyph-name="h" horiz-adv-x="529" d="M513 0V46H442V397Q442 482 408 527T305 572Q257 572 216 557T148 501V713H16V667H91V46H18V0H223V46H148V371Q148 405 158 433T188 482T233 514T291 526Q340 526 362 489T385 383V46H308V0H513Z" />
<glyph unicode="i" glyph-name="i" horiz-adv-x="245" d="M157 696Q157 712 157 720Q157 728 154 731T143 734Q136 734 121 734Q106 734 98 734Q91 734 88 731T85 719Q85 711 85 695Q85 679 85 671Q85 663 88 660T98 657Q106 657 121 657Q136 657 143 657Q151
657 154 660T157 671Q157 679 157 696ZM225 0V46H151V562H15V516H93V46H15V0H225Z" />
<glyph unicode="j" glyph-name="j" horiz-adv-x="225" d="M154 696Q154 712 154 720Q154 728 151 731T140 734Q133 734 118 734Q103 734 95 734Q88 734 85 731T82 719Q82 711 82 695Q82 679 82 671Q82 663 85 660T95 657Q103 657 118 657Q133 657 140 657Q148
657 151 660T154 671Q154 679 154 696ZM149 -71V562H12V516H91V-55Q91 -102 79 -118T37 -135L7 -130H-2V-176L38 -181Q100 -181 124 -155T149 -71Z" />
<glyph unicode="k" glyph-name="k" horiz-adv-x="483" d="M479 0V46H428L263 332L407 516H466V562H282V516H349L151 277V713H19V667H93V46H19V0H207V46H151V211L217 293L365 46H303V0H479Z" />
<glyph unicode="l" glyph-name="l" horiz-adv-x="231" d="M223 0V46H151V713H15V667H93V46H15V0H223Z" />
<glyph unicode="m" glyph-name="m" horiz-adv-x="799" d="M784 0V46H715V397Q715 482 680 527T576 572Q516 572 476 552T418 496Q407 531 378 551T298 572Q253 572 214 555T151 501V562H15V516H93V46H18V0H224V46H151V374Q151 443 191 484T298 526Q335 526 355
491T375 396V46H297V0H502V46H433V378Q433 447 470 486T572 526Q612 526 634 491T657 396V46H580V0H784Z" />
<glyph unicode="n" glyph-name="n" horiz-adv-x="529" d="M514 0V46H442V397Q442 482 409 527T306 572Q258 572 217 557T150 501V562H15V516H93V46H16V0H222V46H150V371Q150 405 160 433T189 482T234 514T292 526Q340 526 362 489T385 383V46H307V0H514Z" />
<glyph unicode="o" glyph-name="o" horiz-adv-x="496" d="M457 243V319Q457 436 410 504T274 572H224Q137 572 90 504T42 319V243Q42 126 89 58T224 -10H274Q361 -10 409 58T457 243ZM400 248Q400 151 365 94T264 36H234Q168 36 134 93T99 248V314Q99 411 133
468T234 526H264Q330 526 365 469T400 314V248Z" />
<glyph unicode="p" glyph-name="p" horiz-adv-x="529" d="M480 240V322Q480 437 437 504T309 572Q257 572 214 553T141 491V562H11V516H83V-124H11V-170H216V-124H141V68Q169 26 212 8T306 -10Q391 -10 435 57T480 240ZM423 245Q423 149 390 93T293 36Q221 36
179 86T137 221V325Q137 422 179 474T293 526Q356 526 389 470T423 317V245Z" />
<glyph unicode="q" glyph-name="q" horiz-adv-x="499" d="M457 243V319Q457 436 410 504T274 572H224Q137 572 90 504T42 319V243Q42 126 89 58T224 -10H274H279L386 -143H444L351 -5H316Q384 11 420 75T457 243ZM400 248Q400 151 365 94T264 36H234Q168 36 134
93T99 248V314Q99 411 133 468T234 526H264Q330 526 365 469T400 314V248Z" />
<glyph unicode="r" glyph-name="r" horiz-adv-x="333" d="M317 571Q296 571 272 567T223 553T180 528T150 490V562H18V516H93V46H18V0H238V46H151V399Q151 433 166 455T205 489T258 506T316 511Q316 513 316 526Q316 539 316 555T317 571Z" />
<glyph unicode="s" glyph-name="s" d="M386 141V171Q386 227 365 254T312 293T243 307T174 315T121 339T99 398V422Q99 467 124 496T198 526Q261 526 296 501T332 440V399H378V562H348V515Q325 543 283 557T186 572Q122 572 83 533T43 421V387Q43 334 64 310T117
275T186 262T255 252T308 224T329 159V143Q329 89 301 63T225 36Q166 36 126 64T84 147L77 166H37V-7H67V53Q93 18 134 4T226 -10Q304 -10 345 28T386 141Z" />
<glyph unicode="t" glyph-name="t" horiz-adv-x="298" d="M280 87V111L240 115Q240 70 230 53T195 36Q147 36 147 103V516H265V562H147V688H143L89 684V562H7V516H89V96Q89 42 111 16T182 -10Q227 -10 253 15T280 87Z" />
<glyph unicode="u" glyph-name="u" horiz-adv-x="529" d="M513 0V46H438V562H307V516H381V191Q381 158 371 130T341 81T297 48T241 36Q189 36 167 71T144 178V562H17V516H87V170Q87 82 120 36T222 -10Q274 -10 315 9T382 68V0H513Z" />
<glyph unicode="v" glyph-name="v" horiz-adv-x="483" d="M474 516V562H299V516H369L243 64L115 516H184V562H9V516H57L209 -2H272L426 516H474Z" />
<glyph unicode="w" glyph-name="w" horiz-adv-x="754" d="M742 516V562H569V516H638L527 69L411 562H363L344 555L228 70L117 516H191V562H12V516H60L192 -2H260L377 495L494 -2H561L694 516H742Z" />
<glyph unicode="x" glyph-name="x" horiz-adv-x="484" d="M471 0V46H425L276 291L413 516H466V562H307V520L353 518L242 331L131 520H183V562H25V516H71L208 289L59 46H13V0H171V46L120 48L242 247L364 44H313V0H471Z" />
<glyph unicode="y" glyph-name="y" horiz-adv-x="483" d="M475 516V562H307V516H378L246 90L116 516H187V562H9V516H58L217 14L180 -101Q175 -112 171 -123T167 -134H97V-180H222V-134L234 -104L434 516H475Z" />
<glyph unicode="z" glyph-name="z" horiz-adv-x="438" d="M396 0V150H345V46H101L392 511V562H46V424H97V516H332L42 52V0H396Z" />
<glyph unicode="{" glyph-name="braceleft" horiz-adv-x="299" d="M268 -167V-126H234Q209 -123 193 -100T176 -19V131Q176 202 155 237T99 287Q134 302 155 337T176 444V594Q176 651 192 674T234 701H268V742H238Q206 742 184 732T148 704T128 663T122 614V442Q122
384 104 348T50 308V267Q85 264 103 228T122 133V-39Q122 -65 128 -88T148 -128T184 -156T238 -167H268Z" />
<glyph unicode="|" glyph-name="bar" horiz-adv-x="224" d="M140 -80V734H84V-80H140Z" />
<glyph unicode="}" glyph-name="braceright" horiz-adv-x="299" d="M249 267V308Q214 311 196 347T177 442V614Q177 639 171 662T150 703T114 731T60 742H30V701H64Q89 698 106 675T123 594V444Q123 373 144 338T200 287Q165 273 144 238T123 131V-19Q123 -76
106 -99T64 -126H30V-167H60Q92 -167 114 -157T150 -129T170 -88T177 -39V133Q177 191 195 227T249 267Z" />
<glyph unicode="~" glyph-name="asciitilde" horiz-adv-x="636" d="M550 286L514 326Q493 292 474 275T428 257Q393 257 325 291Q258 325 211 325Q166 325 136 301T87 242L122 202Q141 236 161 253T208 271Q243 271 310 237Q378 203 426 203Q471 203 500 227T550 286Z" />
<glyph unicode="&#x2013;" glyph-name="endash" horiz-adv-x="500" d="M493 245V290H7V245H493Z" />
<glyph unicode="&#x2014;" glyph-name="emdash" horiz-adv-x="883" d="M876 245V290H7V245H876Z" />
<glyph unicode="&#x2018;" glyph-name="quoteleft" horiz-adv-x="253" d="M176 713H130L72 551V499H99Q133 499 136 498Q140 498 140 525V551H119L176 713Z" />
<glyph unicode="&#x2019;" glyph-name="quoteright" horiz-adv-x="253" d="M176 661V713H151H112Q108 713 108 689V661H130L72 499H118L176 661Z" />
<glyph unicode="&#x201c;" glyph-name="quotedblleft" horiz-adv-x="401" d="M328 713H282L224 551V499H251Q285 499 288 498Q292 498 292 525V551H271L328 713ZM175 713H129L71 551V499H98Q132 499 135 498Q139 498 139 525V551H118L175 713Z" />
<glyph unicode="&#x201d;" glyph-name="quotedblright" horiz-adv-x="401" d="M328 661V713H303H264Q260 713 260 689V661H282L224 499H270L328 661ZM175 661V713H150H111Q107 713 107 689V661H129L71 499H117L175 661Z" />
<glyph unicode="&#x2026;" glyph-name="ellipsis" horiz-adv-x="1000" d="M870 -2V73H796V-2H870ZM540 -2V73H466V-2H540ZM210 -2V73H136V-2H210Z" />
</font>
</defs>
</svg>
